<?xml version="1.0" encoding="utf-8"?>
<!-- Generator: Adobe Illustrator 27.5.0, SVG Export Plug-In . SVG Version: 6.00 Build 0)  -->
<svg version="1.1" xmlns="http://www.w3.org/2000/svg" xmlns:xlink="http://www.w3.org/1999/xlink" x="0px" y="0px"
	 viewBox="0 0 500 500" style="enable-background:new 0 0 500 500;" xml:space="preserve">
<g id="BACKGROUND">
	<rect id="XMLID_1_" style="fill:#FFFFFF;" width="500" height="500"/>
</g>
<g id="OBJECTS">
	<g>
		<g>
			<path style="fill:#F7777E;" d="M128.664,144.734c0,7.6-3.157,14.166-7.739,17.258c-1.788,1.201-3.79,1.881-5.914,1.881
				c-1.378,0-2.71-0.279-3.967-0.82c8.177-14.631-3.157-23.628-3.157-23.628l-5.746-1.08c1.863-7.441,6.92-12.769,12.871-12.769
				c6.11,0,11.288,5.635,13.02,13.411C128.44,140.795,128.664,142.723,128.664,144.734z"/>
			<path style="fill:#F7777E;" d="M198.885,130.552c0,0-22.477-8.413-37.169,8.037c0,0-3.684,6.111-4.437,15.655
				c-0.753,9.544,0.64,9.254,2.063,12.101c2.028,4.056,1.379,10.488-1.597,13.854c-2.327,2.633,1.863,4.087,3.751,4.192
				c0,0,2.45,0.14,1.662,2.718c-0.788,2.577,1.192,3.76,3.724,2.077c0,0-2.593,2.489-0.709,3.714c1.884,1.224,3.138,0.41,3.389,3.11
				c0.251,2.7,1.947,6.371,5.275,6.371s6.844-2.292,10.046-1.13c3.202,1.162-0.565,8.413-0.565,8.413s-8.351,31.142-2.009,40.183
				c6.341,9.041,26.37,9.104,36.291-3.014c9.92-12.118,9.795-38.174,9.795-38.174s-16.199-15.069-16.199-27.459
				c0,0,6.53-4.688,6.195-14.064c-0.335-9.376-6.195-26.119-6.195-26.119s12.557-0.921,12.557,16.743s-5.947,35.331,17.493,44.54
				c23.44,9.209,23.859,20.929,23.859,20.929s7.37-13.565-1.839-33.489s-18.417-17.915-19.255-47.215
				C244.175,113.223,205.331,106.944,198.885,130.552z"/>
			<path style="fill:#F7777E;" d="M171.263,214.938l-11.055,38.678c0,0-3.018-7.786-9.295-7.032
				c-6.277,0.754-29.505,7.535-51.987,5.271c-22.473-2.263-35.037-7.283-34.906-10.803c0.121-3.511,0.671-14.901,6.696-30.389
				c6.026-15.479,11.055-34.906,11.549-36.667c0.428-1.481,0.978-5.635,1.127-6.855c1.537,0.587,3.167,0.894,4.852,0.894
				c2.589,0,5.038-0.736,7.227-2.04c3.669-2.189,6.585-5.998,8.168-10.673c0.829-2.449,1.285-5.15,1.285-7.991
				c0-2.17-0.27-4.256-0.773-6.212c1.5,0.112,3.399,0.568,3.399,0.568s6.78,7.786,3.856,16.568c-0.549,1.63-1.36,2.803-2.356,3.697
				c-2.701,2.45-6.724,2.813-10.114,4.433c-2.105,1.006-3.967,2.496-5.113,5.271c-3.688,8.866-3.604,28.042-2.85,33.984
				s3.185,14.398,1.341,20.592c0,0,25.705-5.271,38.175-3.511C130.489,222.724,145.558,211.669,171.263,214.938z"/>
			<path style="fill:#F7777E;" d="M103.502,147.198c0,7.605-3.566,14.168-8.742,17.26c-2.024,1.206-4.289,1.886-6.683,1.886
				c-1.559,0-3.066-0.284-4.487-0.827c-6.339-2.377-10.947-9.681-10.947-18.319c0-10.585,6.907-19.155,15.434-19.155
				c6.907,0,12.755,5.633,14.711,13.41C103.252,143.262,103.502,145.191,103.502,147.198z"/>
			<path style="fill:#F7777E;" d="M208.646,296.56l-32.401,42.031c-0.326-3.995-2.98-35.791-4.983-42.031H208.646z"/>
			<path style="fill:#F7777E;" d="M241.747,253.617c-8.707-21.93-5.441-43.117-5.441-43.117s16.07,4.273,19.757,7.869
				c3.799,3.707,5.733,9.24,5.733,9.24L241.747,253.617z"/>
		</g>
		<g>
			<polygon style="fill:#2EBDCC;" points="116.059,260.675 117.809,271.287 127.543,275.862 117.991,280.806 116.649,291.477 
				108.995,283.92 98.431,285.941 103.252,276.327 98.066,266.904 108.7,268.519 			"/>
			<polygon style="fill:#2EBDCC;" points="116.31,308.743 121.307,304.856 120.939,298.535 126.18,302.087 132.077,299.783 
				130.319,305.866 134.332,310.762 128.004,310.97 124.587,316.3 122.435,310.345 			"/>
			<polygon style="fill:#2EBDCC;" points="142.303,317.576 142.487,321.024 145.431,322.828 142.208,324.068 141.402,327.426 
				139.227,324.744 135.784,325.015 137.663,322.118 136.341,318.927 139.678,319.819 			"/>
			<polygon style="fill:#2EBDCC;" points="132.257,201.378 127.354,207.762 129.833,215.42 122.247,212.73 115.729,217.454 
				115.944,209.407 109.437,204.668 117.156,202.386 119.652,194.733 124.208,201.369 			"/>
			<polygon style="fill:#2EBDCC;" points="133.414,191.24 135.261,186.264 132.208,181.922 137.511,182.141 140.698,177.896 
				142.129,183.007 147.15,184.725 142.732,187.666 142.649,192.973 138.487,189.679 			"/>
		</g>
	</g>
	<g>
		<text transform="matrix(1 0 0 1 215.575 305.0316)" style="fill:#2EBDCC; font-family:'JosefinSans-Bold'; font-size:54.0507px;">FITNESS</text>
		
			<text transform="matrix(1 0 0 1 218.5119 339.9701)" style="fill:#F7777E; font-family:'JosefinSans-LightItalic'; font-size:33.4246px;">LOGO</text>
	</g>
</g>
<g id="DESIGNED_BY_FREEPIK">
	<g>
		<g id="XMLID_30_">
			<g id="XMLID_49_">
				<path id="XMLID_57_" style="fill:#112129;" d="M260.104,471.331c-0.432,0.443-0.803,0.931-1.108,1.453l-0.465-0.241
					c-0.067-0.298-0.349-0.503-0.659-0.466c-0.331,0.039-0.568,0.339-0.529,0.67c0.039,0.331,0.339,0.568,0.67,0.529
					c0.066-0.008,0.127-0.026,0.184-0.052l0.451,0.234c-0.251,0.554-0.433,1.139-0.539,1.744l0.746,0.132
					c0.23-1.306,0.85-2.507,1.792-3.473L260.104,471.331z"/>
				<path id="XMLID_56_" style="fill:#112129;" d="M265.592,469.029c-0.171,0-0.341,0.006-0.51,0.017l-0.074-0.626
					c0.188-0.149,0.296-0.389,0.266-0.645c-0.046-0.393-0.402-0.674-0.795-0.628c-0.393,0.046-0.674,0.402-0.628,0.795
					c0.03,0.254,0.189,0.461,0.404,0.564l0.074,0.624c-0.714,0.116-1.403,0.332-2.06,0.646l0.327,0.684
					c0.934-0.447,1.942-0.673,2.995-0.673c0.496,0,0.993,0.053,1.475,0.158l0.161-0.741
					C266.692,469.087,266.142,469.029,265.592,469.029z"/>
				<path id="XMLID_55_" style="fill:#112129;" d="M272.194,471.576c0.331-0.04,0.566-0.341,0.526-0.672
					c-0.04-0.331-0.341-0.566-0.672-0.526c-0.309,0.038-0.535,0.304-0.53,0.609l-0.416,0.363c-0.418-0.43-0.889-0.813-1.408-1.139
					l-0.404,0.641c1.134,0.715,2.021,1.726,2.563,2.925l0.69-0.313c-0.251-0.554-0.568-1.072-0.942-1.545l0.402-0.351
					C272.065,471.581,272.129,471.584,272.194,471.576z"/>
				<path id="XMLID_54_" style="fill:#112129;" d="M265.044,479.237c-0.386,0.023-0.775,0.035-1.157,0.035
					c-0.88,0-1.733-0.061-2.478-0.179c-0.39-0.062-0.846-0.155-1.27-0.292c1.046,1.861,3.069,3.125,5.388,3.125
					c2.855,0,5.262-1.916,5.95-4.504c-0.682,0.449-1.505,0.825-2.459,1.123C267.839,478.912,266.463,479.152,265.044,479.237z"/>
				<path id="XMLID_50_" style="fill:#112129;" d="M265.592,470.545c-3.352,0-6.08,2.666-6.08,5.943
					c0,0.426,0.046,0.849,0.137,1.261c0.673,0.483,2.706,0.89,5.348,0.731c2.879-0.173,5.297-0.957,6.672-2.159
					c-0.006-0.195-0.021-0.39-0.045-0.582C271.244,472.778,268.65,470.545,265.592,470.545z M263.432,477.06
					c-1.02,0-1.85-0.83-1.85-1.85c0-1.02,0.83-1.85,1.85-1.85c1.02,0,1.85,0.83,1.85,1.85
					C265.282,476.23,264.452,477.06,263.432,477.06z M268.17,476.151c-0.75,0-1.36-0.61-1.36-1.36c0-0.75,0.61-1.361,1.36-1.361
					c0.75,0,1.361,0.61,1.361,1.361C269.53,475.541,268.92,476.151,268.17,476.151z"/>
			</g>
			<path id="XMLID_47_" style="fill:#112129;" d="M281.595,472.412c-0.295-0.116-0.805-0.309-1.382-0.237
				c-0.551,0.069-0.844,0.341-0.844,1.007v0.866h2.228v1.717h-2.228v5.455h-1.932v-5.455h-1.34v-1.717h1.34v-0.888
				c0-1.68,0.896-2.783,2.568-2.783c0.643,0,1.157,0.122,1.59,0.308L281.595,472.412z"/>
			<path id="XMLID_45_" style="fill:#112129;" d="M286.298,475.744c-0.177-0.03-0.358-0.046-0.526-0.046
				c-0.895,0-1.51,0.548-1.51,1.613v3.908h-1.932v-7.172h1.873v0.785c0.451-0.673,1.14-0.977,2.021-0.977
				c0.414,0,0.848,0.128,1.094,0.337L286.298,475.744z"/>
			<path id="XMLID_42_" style="fill:#112129;" d="M293.965,477.622c0,0.222-0.015,0.489-0.037,0.651h-5.085
				c0.207,1.036,0.933,1.488,1.843,1.488c0.622,0,1.295-0.252,1.813-0.688l1.133,1.243c-0.814,0.748-1.85,1.088-3.057,1.088
				c-2.198,0-3.723-1.495-3.723-3.753c0-2.258,1.48-3.797,3.627-3.797C292.544,473.855,293.958,475.387,293.965,477.622z
				 M288.851,476.956h3.175c-0.177-0.918-0.733-1.436-1.562-1.436C289.554,475.52,289.021,476.068,288.851,476.956z"/>
			<path id="XMLID_39_" style="fill:#112129;" d="M301.618,477.622c0,0.222-0.015,0.489-0.037,0.651h-5.085
				c0.207,1.036,0.932,1.488,1.843,1.488c0.622,0,1.295-0.252,1.814-0.688l1.132,1.243c-0.814,0.748-1.85,1.088-3.057,1.088
				c-2.198,0-3.723-1.495-3.723-3.753c0-2.258,1.48-3.797,3.627-3.797C300.197,473.855,301.611,475.387,301.618,477.622z
				 M296.504,476.956h3.175c-0.178-0.918-0.733-1.436-1.562-1.436C297.207,475.52,296.674,476.068,296.504,476.956z"/>
			<path id="XMLID_36_" style="fill:#112129;" d="M309.964,477.629c0,2.154-1.495,3.775-3.471,3.775
				c-0.962,0-1.643-0.378-2.109-0.933v3.708h-1.924v-10.133h1.887v0.792c0.466-0.585,1.155-0.984,2.139-0.984
				C308.469,473.855,309.964,475.476,309.964,477.629z M304.287,477.629c0,1.132,0.747,1.976,1.843,1.976
				c1.14,0,1.85-0.881,1.85-1.976c0-1.095-0.711-1.976-1.85-1.976C305.035,475.653,304.287,476.497,304.287,477.629z"/>
			<path id="XMLID_33_" style="fill:#112129;" d="M313.067,471.701c0,0.696-0.54,1.229-1.236,1.229
				c-0.696,0-1.229-0.533-1.229-1.229c0-0.696,0.533-1.243,1.229-1.243C312.527,470.457,313.067,471.005,313.067,471.701z
				 M312.809,481.219h-1.932v-7.172h1.932V481.219z"/>
			<path id="XMLID_31_" style="fill:#112129;" d="M316.032,476.601l2.702-2.554h2.368l-3.479,3.375l3.501,3.797h-2.376l-2.716-2.901
				v2.901H314.1v-10.658h1.932V476.601z"/>
		</g>
		<g>
			<path style="fill:#112129;" d="M184.412,481.154v-1.055c-0.527,0.718-1.391,1.23-2.387,1.23c-1.846,0-3.149-1.406-3.149-3.706
				c0-2.256,1.289-3.721,3.149-3.721c0.952,0,1.816,0.469,2.387,1.245v-3.765h1.099v9.77H184.412z M184.412,479.235v-3.208
				c-0.395-0.615-1.245-1.143-2.124-1.143c-1.421,0-2.27,1.172-2.27,2.739c0,1.567,0.85,2.724,2.27,2.724
				C183.168,480.349,184.017,479.851,184.412,479.235z"/>
			<path style="fill:#112129;" d="M186.932,477.609c0-2.051,1.465-3.706,3.486-3.706c2.139,0,3.398,1.67,3.398,3.794v0.279h-5.727
				c0.088,1.333,1.025,2.446,2.549,2.446c0.805,0,1.626-0.322,2.182-0.894l0.527,0.718c-0.703,0.703-1.655,1.084-2.812,1.084
				C188.44,481.33,186.932,479.821,186.932,477.609z M190.403,474.812c-1.509,0-2.256,1.274-2.314,2.358h4.643
				C192.718,476.115,192.015,474.812,190.403,474.812z"/>
			<path style="fill:#112129;" d="M194.607,480.217l0.571-0.791c0.469,0.542,1.362,1.011,2.329,1.011c1.084,0,1.67-0.513,1.67-1.216
				c0-1.714-4.38-0.659-4.38-3.281c0-1.098,0.952-2.036,2.636-2.036c1.201,0,2.051,0.454,2.622,1.025l-0.513,0.762
				c-0.424-0.513-1.201-0.894-2.109-0.894c-0.967,0-1.567,0.483-1.567,1.113c0,1.552,4.38,0.527,4.38,3.281
				c0,1.187-0.952,2.138-2.783,2.138C196.306,481.33,195.325,480.978,194.607,480.217z"/>
			<path style="fill:#112129;" d="M201.477,472.336c0-0.41,0.337-0.747,0.732-0.747c0.41,0,0.747,0.337,0.747,0.747
				c0,0.41-0.337,0.732-0.747,0.732C201.814,473.068,201.477,472.746,201.477,472.336z M201.667,481.154v-7.075h1.099v7.075H201.667
				z"/>
			<path style="fill:#112129;" d="M204.582,482.97l0.556-0.82c0.586,0.703,1.289,0.967,2.3,0.967c1.172,0,2.27-0.571,2.27-2.124
				v-1.011c-0.513,0.718-1.377,1.26-2.373,1.26c-1.845,0-3.149-1.377-3.149-3.662c0-2.27,1.289-3.676,3.149-3.676
				c0.952,0,1.802,0.469,2.373,1.245v-1.069h1.098v6.87c0,2.344-1.641,3.076-3.369,3.076
				C206.237,484.025,205.417,483.791,204.582,482.97z M209.709,479.118v-3.091c-0.381-0.615-1.23-1.143-2.109-1.143
				c-1.421,0-2.27,1.128-2.27,2.695c0,1.553,0.849,2.695,2.27,2.695C208.478,480.275,209.328,479.733,209.709,479.118z"/>
			<path style="fill:#112129;" d="M217.413,481.154v-4.629c0-1.245-0.63-1.641-1.582-1.641c-0.865,0-1.685,0.527-2.095,1.099v5.17
				h-1.099v-7.075h1.099v1.025c0.498-0.586,1.465-1.201,2.519-1.201c1.48,0,2.256,0.747,2.256,2.285v4.966H217.413z"/>
			<path style="fill:#112129;" d="M219.932,477.609c0-2.051,1.465-3.706,3.486-3.706c2.139,0,3.398,1.67,3.398,3.794v0.279h-5.727
				c0.088,1.333,1.025,2.446,2.549,2.446c0.806,0,1.626-0.322,2.183-0.894l0.527,0.718c-0.703,0.703-1.655,1.084-2.812,1.084
				C221.441,481.33,219.932,479.821,219.932,477.609z M223.404,474.812c-1.509,0-2.256,1.274-2.314,2.358h4.643
				C225.718,476.115,225.015,474.812,223.404,474.812z"/>
			<path style="fill:#112129;" d="M233.35,481.154v-1.055c-0.527,0.718-1.392,1.23-2.388,1.23c-1.846,0-3.149-1.406-3.149-3.706
				c0-2.256,1.289-3.721,3.149-3.721c0.952,0,1.817,0.469,2.388,1.245v-3.765h1.098v9.77H233.35z M233.35,479.235v-3.208
				c-0.396-0.615-1.245-1.143-2.124-1.143c-1.421,0-2.27,1.172-2.27,2.739c0,1.567,0.849,2.724,2.27,2.724
				C232.105,480.349,232.954,479.851,233.35,479.235z"/>
			<path style="fill:#112129;" d="M239.692,481.154v-9.77h1.098v3.765c0.572-0.776,1.421-1.245,2.388-1.245
				c1.845,0,3.149,1.465,3.149,3.721c0,2.299-1.304,3.706-3.149,3.706c-0.996,0-1.86-0.513-2.388-1.23v1.055H239.692z
				 M242.9,480.349c1.436,0,2.285-1.157,2.285-2.724c0-1.568-0.85-2.739-2.285-2.739c-0.864,0-1.728,0.527-2.109,1.143v3.208
				C241.171,479.851,242.036,480.349,242.9,480.349z"/>
			<path style="fill:#112129;" d="M247.528,482.927c0.161,0.073,0.425,0.117,0.601,0.117c0.483,0,0.805-0.161,1.055-0.747
				l0.469-1.069l-2.959-7.148h1.187l2.358,5.8l2.344-5.8h1.201l-3.545,8.51c-0.425,1.025-1.143,1.421-2.08,1.435
				c-0.234,0-0.601-0.044-0.806-0.103L247.528,482.927z"/>
		</g>
	</g>
</g>
</svg>
